<?xml version="1.0" encoding="UTF-8"?>
<svg xmlns="http://www.w3.org/2000/svg" viewBox="0 0 800 600" preserveAspectRatio="xMidYMid slice">
  <defs>
    <radialGradient id="bg" cx="50%" cy="40%" r="80%">
      <stop offset="0%" stop-color="#300800"/>
      <stop offset="100%" stop-color="#1a0400"/>
    </radialGradient>
    <radialGradient id="vignette" cx="50%" cy="50%" r="60%">
      <stop offset="23%" stop-color="black" stop-opacity="0"/>
      <stop offset="100%" stop-color="black" stop-opacity="0.87"/>
    </radialGradient>
    <filter id="blur-sm"><feGaussianBlur stdDeviation="3"/></filter>
    <filter id="blur-md"><feGaussianBlur stdDeviation="8"/></filter>
    <filter id="blur-lg"><feGaussianBlur stdDeviation="20"/></filter>
  </defs>

  <!-- Background -->
  <rect width="800" height="600" fill="url(#bg)"/>

  <!-- Scene elements -->
  <circle cx="507" cy="177" r="71" fill="none" stroke="#ff6600" stroke-width="2" opacity="0.06" filter="url(#blur-sm)"/>
  <line x1="507" y1="114" x2="507" y2="106" stroke="#ff6600" stroke-width="1.5" opacity="0.06"/>
  <line x1="538" y1="122" x2="542" y2="116" stroke="#ff6600" stroke-width="1.5" opacity="0.06"/>
  <line x1="562" y1="146" x2="568" y2="142" stroke="#ff6600" stroke-width="1.5" opacity="0.06"/>
  <line x1="570" y1="177" x2="578" y2="177" stroke="#ff6600" stroke-width="1.5" opacity="0.06"/>
  <line x1="562" y1="208" x2="568" y2="212" stroke="#ff6600" stroke-width="1.5" opacity="0.06"/>
  <line x1="538" y1="232" x2="542" y2="238" stroke="#ff6600" stroke-width="1.5" opacity="0.06"/>
  <line x1="507" y1="240" x2="507" y2="248" stroke="#ff6600" stroke-width="1.5" opacity="0.06"/>
  <line x1="476" y1="232" x2="472" y2="238" stroke="#ff6600" stroke-width="1.5" opacity="0.06"/>
  <line x1="452" y1="208" x2="446" y2="212" stroke="#ff6600" stroke-width="1.5" opacity="0.06"/>
  <line x1="444" y1="177" x2="436" y2="177" stroke="#ff6600" stroke-width="1.5" opacity="0.06"/>
  <line x1="452" y1="146" x2="446" y2="142" stroke="#ff6600" stroke-width="1.5" opacity="0.06"/>
  <line x1="476" y1="122" x2="472" y2="116" stroke="#ff6600" stroke-width="1.5" opacity="0.06"/>
  <circle cx="114" cy="349" r="99" fill="none" stroke="#ff6600" stroke-width="2" opacity="0.05" filter="url(#blur-sm)"/>
  <line x1="114" y1="258" x2="114" y2="250" stroke="#ff6600" stroke-width="1.5" opacity="0.05"/>
  <line x1="160" y1="270" x2="164" y2="263" stroke="#ff6600" stroke-width="1.5" opacity="0.05"/>
  <line x1="193" y1="304" x2="200" y2="300" stroke="#ff6600" stroke-width="1.5" opacity="0.05"/>
  <line x1="205" y1="349" x2="213" y2="349" stroke="#ff6600" stroke-width="1.5" opacity="0.05"/>
  <line x1="193" y1="394" x2="200" y2="398" stroke="#ff6600" stroke-width="1.5" opacity="0.05"/>
  <line x1="160" y1="428" x2="164" y2="435" stroke="#ff6600" stroke-width="1.5" opacity="0.05"/>
  <line x1="114" y1="440" x2="114" y2="448" stroke="#ff6600" stroke-width="1.5" opacity="0.05"/>
  <line x1="69" y1="428" x2="65" y2="435" stroke="#ff6600" stroke-width="1.5" opacity="0.05"/>
  <line x1="35" y1="394" x2="28" y2="398" stroke="#ff6600" stroke-width="1.5" opacity="0.05"/>
  <line x1="23" y1="349" x2="15" y2="349" stroke="#ff6600" stroke-width="1.5" opacity="0.05"/>
  <line x1="35" y1="304" x2="28" y2="300" stroke="#ff6600" stroke-width="1.5" opacity="0.05"/>
  <line x1="68" y1="270" x2="64" y2="263" stroke="#ff6600" stroke-width="1.5" opacity="0.05"/>
  <circle cx="449" cy="431" r="79" fill="none" stroke="#ff6600" stroke-width="2" opacity="0.03" filter="url(#blur-sm)"/>
  <line x1="449" y1="360" x2="449" y2="352" stroke="#ff6600" stroke-width="1.5" opacity="0.03"/>
  <line x1="484" y1="370" x2="488" y2="363" stroke="#ff6600" stroke-width="1.5" opacity="0.03"/>
  <line x1="510" y1="396" x2="517" y2="392" stroke="#ff6600" stroke-width="1.5" opacity="0.03"/>
  <line x1="520" y1="431" x2="528" y2="431" stroke="#ff6600" stroke-width="1.5" opacity="0.03"/>
  <line x1="510" y1="466" x2="517" y2="470" stroke="#ff6600" stroke-width="1.5" opacity="0.03"/>
  <line x1="484" y1="492" x2="488" y2="499" stroke="#ff6600" stroke-width="1.5" opacity="0.03"/>
  <line x1="449" y1="502" x2="449" y2="510" stroke="#ff6600" stroke-width="1.5" opacity="0.03"/>
  <line x1="414" y1="492" x2="410" y2="499" stroke="#ff6600" stroke-width="1.5" opacity="0.03"/>
  <line x1="388" y1="466" x2="381" y2="470" stroke="#ff6600" stroke-width="1.5" opacity="0.03"/>
  <line x1="378" y1="431" x2="370" y2="431" stroke="#ff6600" stroke-width="1.5" opacity="0.03"/>
  <line x1="388" y1="396" x2="381" y2="392" stroke="#ff6600" stroke-width="1.5" opacity="0.03"/>
  <line x1="414" y1="370" x2="409" y2="363" stroke="#ff6600" stroke-width="1.5" opacity="0.03"/>
  <circle cx="225" cy="432" r="58" fill="none" stroke="#ff6600" stroke-width="2" opacity="0.05" filter="url(#blur-sm)"/>
  <line x1="225" y1="382" x2="225" y2="374" stroke="#ff6600" stroke-width="1.5" opacity="0.05"/>
  <line x1="250" y1="389" x2="254" y2="382" stroke="#ff6600" stroke-width="1.5" opacity="0.05"/>
  <line x1="268" y1="407" x2="275" y2="403" stroke="#ff6600" stroke-width="1.5" opacity="0.05"/>
  <line x1="275" y1="432" x2="283" y2="432" stroke="#ff6600" stroke-width="1.5" opacity="0.05"/>
  <line x1="268" y1="457" x2="275" y2="461" stroke="#ff6600" stroke-width="1.5" opacity="0.05"/>
  <line x1="250" y1="475" x2="254" y2="482" stroke="#ff6600" stroke-width="1.5" opacity="0.05"/>
  <line x1="225" y1="482" x2="225" y2="490" stroke="#ff6600" stroke-width="1.5" opacity="0.05"/>
  <line x1="200" y1="475" x2="196" y2="482" stroke="#ff6600" stroke-width="1.5" opacity="0.05"/>
  <line x1="182" y1="457" x2="175" y2="461" stroke="#ff6600" stroke-width="1.5" opacity="0.05"/>
  <line x1="175" y1="432" x2="167" y2="432" stroke="#ff6600" stroke-width="1.5" opacity="0.05"/>
  <line x1="182" y1="407" x2="175" y2="403" stroke="#ff6600" stroke-width="1.5" opacity="0.05"/>
  <line x1="200" y1="389" x2="196" y2="382" stroke="#ff6600" stroke-width="1.5" opacity="0.05"/>
  <circle cx="552" cy="290" r="70" fill="none" stroke="#ff6600" stroke-width="2" opacity="0.05" filter="url(#blur-sm)"/>
  <line x1="552" y1="228" x2="552" y2="220" stroke="#ff6600" stroke-width="1.5" opacity="0.05"/>
  <line x1="583" y1="236" x2="587" y2="229" stroke="#ff6600" stroke-width="1.5" opacity="0.05"/>
  <line x1="606" y1="259" x2="613" y2="255" stroke="#ff6600" stroke-width="1.5" opacity="0.05"/>
  <line x1="614" y1="290" x2="622" y2="290" stroke="#ff6600" stroke-width="1.5" opacity="0.05"/>
  <line x1="606" y1="321" x2="613" y2="325" stroke="#ff6600" stroke-width="1.5" opacity="0.05"/>
  <line x1="583" y1="344" x2="587" y2="351" stroke="#ff6600" stroke-width="1.5" opacity="0.05"/>
  <line x1="552" y1="352" x2="552" y2="360" stroke="#ff6600" stroke-width="1.5" opacity="0.05"/>
  <line x1="521" y1="344" x2="517" y2="351" stroke="#ff6600" stroke-width="1.5" opacity="0.05"/>
  <line x1="498" y1="321" x2="491" y2="325" stroke="#ff6600" stroke-width="1.5" opacity="0.05"/>
  <line x1="490" y1="290" x2="482" y2="290" stroke="#ff6600" stroke-width="1.5" opacity="0.05"/>
  <line x1="498" y1="259" x2="491" y2="255" stroke="#ff6600" stroke-width="1.5" opacity="0.05"/>
  <line x1="521" y1="236" x2="517" y2="229" stroke="#ff6600" stroke-width="1.5" opacity="0.05"/>
  <ellipse cx="400" cy="300" rx="300" ry="200" fill="#c04a00" opacity="0.06" filter="url(#blur-lg)"/>

  <!-- Vignette overlay -->
  <rect width="800" height="600" fill="url(#vignette)"/>
</svg>