<?xml version="1.0" encoding="UTF-8"?>
<svg xmlns="http://www.w3.org/2000/svg" viewBox="0 0 800 600" preserveAspectRatio="xMidYMid slice">
  <defs>
    <radialGradient id="bg" cx="50%" cy="40%" r="80%">
      <stop offset="0%" stop-color="#280a0a"/>
      <stop offset="100%" stop-color="#140505"/>
    </radialGradient>
    <radialGradient id="vignette" cx="50%" cy="50%" r="60%">
      <stop offset="35%" stop-color="black" stop-opacity="0"/>
      <stop offset="100%" stop-color="black" stop-opacity="0.75"/>
    </radialGradient>
    <filter id="blur-sm"><feGaussianBlur stdDeviation="3"/></filter>
    <filter id="blur-md"><feGaussianBlur stdDeviation="8"/></filter>
    <filter id="blur-lg"><feGaussianBlur stdDeviation="20"/></filter>
  </defs>

  <!-- Background -->
  <rect width="800" height="600" fill="url(#bg)"/>

  <!-- Scene elements -->
  <circle cx="400" cy="280" r="150" fill="#903030" opacity="0.07" filter="url(#blur-lg)"/>
  <line x1="473" y1="356" x2="600" y2="487" stroke="#c04040" stroke-width="1.5" opacity="0.04" filter="url(#blur-sm)"/>
  <line x1="319" y1="319" x2="4" y2="473" stroke="#c04040" stroke-width="1.5" opacity="0.04" filter="url(#blur-sm)"/>
  <line x1="392" y1="398" x2="381" y2="551" stroke="#c04040" stroke-width="1.5" opacity="0.04" filter="url(#blur-sm)"/>
  <line x1="260" y1="280" x2="12" y2="280" stroke="#c04040" stroke-width="1.5" opacity="0.04" filter="url(#blur-sm)"/>
  <line x1="277" y1="242" x2="39" y2="169" stroke="#c04040" stroke-width="1.5" opacity="0.04" filter="url(#blur-sm)"/>
  <line x1="293" y1="226" x2="13" y2="83" stroke="#c04040" stroke-width="1.5" opacity="0.04" filter="url(#blur-sm)"/>
  <line x1="285" y1="187" x2="53" y2="-1" stroke="#c04040" stroke-width="1.5" opacity="0.04" filter="url(#blur-sm)"/>
  <line x1="468" y1="229" x2="728" y2="33" stroke="#c04040" stroke-width="1.5" opacity="0.04" filter="url(#blur-sm)"/>
  <line x1="344" y1="344" x2="197" y2="513" stroke="#c04040" stroke-width="1.5" opacity="0.04" filter="url(#blur-sm)"/>
  <line x1="389" y1="200" x2="345" y2="-112" stroke="#c04040" stroke-width="1.5" opacity="0.04" filter="url(#blur-sm)"/>
  <line x1="341" y1="189" x2="257" y2="59" stroke="#c04040" stroke-width="1.5" opacity="0.04" filter="url(#blur-sm)"/>
  <line x1="294" y1="255" x2="135" y2="219" stroke="#c04040" stroke-width="1.5" opacity="0.04" filter="url(#blur-sm)"/>
  <line x1="370" y1="149" x2="333" y2="-11" stroke="#c04040" stroke-width="1.5" opacity="0.04" filter="url(#blur-sm)"/>
  <line x1="354" y1="375" x2="244" y2="599" stroke="#c04040" stroke-width="1.5" opacity="0.04" filter="url(#blur-sm)"/>
  <line x1="406" y1="399" x2="417" y2="614" stroke="#c04040" stroke-width="1.5" opacity="0.04" filter="url(#blur-sm)"/>
  <line x1="493" y1="286" x2="754" y2="305" stroke="#c04040" stroke-width="1.5" opacity="0.04" filter="url(#blur-sm)"/>
  <line x1="288" y1="325" x2="83" y2="408" stroke="#c04040" stroke-width="1.5" opacity="0.04" filter="url(#blur-sm)"/>
  <line x1="476" y1="207" x2="624" y2="64" stroke="#c04040" stroke-width="1.5" opacity="0.04" filter="url(#blur-sm)"/>
  <line x1="347" y1="193" x2="250" y2="30" stroke="#c04040" stroke-width="1.5" opacity="0.04" filter="url(#blur-sm)"/>
  <line x1="354" y1="390" x2="247" y2="640" stroke="#c04040" stroke-width="1.5" opacity="0.04" filter="url(#blur-sm)"/>

  <!-- Vignette overlay -->
  <rect width="800" height="600" fill="url(#vignette)"/>
</svg>