<?xml version="1.0" encoding="UTF-8"?>
<svg xmlns="http://www.w3.org/2000/svg" viewBox="0 0 800 600" preserveAspectRatio="xMidYMid slice">
  <defs>
    <radialGradient id="bg" cx="50%" cy="40%" r="80%">
      <stop offset="0%" stop-color="#101828"/>
      <stop offset="100%" stop-color="#080c18"/>
    </radialGradient>
    <radialGradient id="vignette" cx="50%" cy="50%" r="60%">
      <stop offset="35%" stop-color="black" stop-opacity="0"/>
      <stop offset="100%" stop-color="black" stop-opacity="0.75"/>
    </radialGradient>
    <filter id="blur-sm"><feGaussianBlur stdDeviation="3"/></filter>
    <filter id="blur-md"><feGaussianBlur stdDeviation="8"/></filter>
    <filter id="blur-lg"><feGaussianBlur stdDeviation="20"/></filter>
  </defs>

  <!-- Background -->
  <rect width="800" height="600" fill="url(#bg)"/>

  <!-- Scene elements -->
  <rect x="0" y="0" width="800" height="200" fill="#2a3a5a" opacity="0.04" filter="url(#blur-lg)"/>
  <line x1="534" y1="121" x2="549" y2="191" stroke="#5070a0" stroke-width="1" opacity="0.04"/>
  <line x1="810" y1="233" x2="825" y2="293" stroke="#5070a0" stroke-width="1" opacity="0.06"/>
  <line x1="495" y1="490" x2="510" y2="531" stroke="#5070a0" stroke-width="1" opacity="0.08"/>
  <line x1="581" y1="465" x2="596" y2="515" stroke="#5070a0" stroke-width="1" opacity="0.08"/>
  <line x1="490" y1="442" x2="505" y2="500" stroke="#5070a0" stroke-width="1" opacity="0.04"/>
  <line x1="639" y1="600" x2="654" y2="634" stroke="#5070a0" stroke-width="1" opacity="0.05"/>
  <line x1="266" y1="480" x2="281" y2="541" stroke="#5070a0" stroke-width="1" opacity="0.07"/>
  <line x1="710" y1="572" x2="725" y2="649" stroke="#5070a0" stroke-width="1" opacity="0.06"/>
  <line x1="784" y1="237" x2="799" y2="287" stroke="#5070a0" stroke-width="1" opacity="0.06"/>
  <line x1="647" y1="201" x2="662" y2="238" stroke="#5070a0" stroke-width="1" opacity="0.07"/>
  <line x1="276" y1="241" x2="291" y2="284" stroke="#5070a0" stroke-width="1" opacity="0.08"/>
  <line x1="17" y1="324" x2="32" y2="361" stroke="#5070a0" stroke-width="1" opacity="0.06"/>
  <line x1="738" y1="198" x2="753" y2="260" stroke="#5070a0" stroke-width="1" opacity="0.04"/>
  <line x1="-44" y1="312" x2="-29" y2="375" stroke="#5070a0" stroke-width="1" opacity="0.06"/>
  <line x1="518" y1="353" x2="533" y2="407" stroke="#5070a0" stroke-width="1" opacity="0.04"/>
  <line x1="62" y1="-17" x2="77" y2="36" stroke="#5070a0" stroke-width="1" opacity="0.07"/>
  <line x1="715" y1="523" x2="730" y2="560" stroke="#5070a0" stroke-width="1" opacity="0.03"/>
  <line x1="45" y1="72" x2="60" y2="122" stroke="#5070a0" stroke-width="1" opacity="0.03"/>
  <line x1="369" y1="232" x2="384" y2="284" stroke="#5070a0" stroke-width="1" opacity="0.04"/>
  <line x1="147" y1="347" x2="162" y2="406" stroke="#5070a0" stroke-width="1" opacity="0.06"/>
  <line x1="758" y1="316" x2="773" y2="383" stroke="#5070a0" stroke-width="1" opacity="0.06"/>
  <line x1="754" y1="265" x2="769" y2="326" stroke="#5070a0" stroke-width="1" opacity="0.03"/>
  <line x1="442" y1="338" x2="457" y2="392" stroke="#5070a0" stroke-width="1" opacity="0.07"/>
  <line x1="320" y1="63" x2="335" y2="135" stroke="#5070a0" stroke-width="1" opacity="0.07"/>
  <line x1="-35" y1="505" x2="-20" y2="575" stroke="#5070a0" stroke-width="1" opacity="0.05"/>
  <line x1="272" y1="117" x2="287" y2="178" stroke="#5070a0" stroke-width="1" opacity="0.07"/>
  <line x1="444" y1="-16" x2="459" y2="58" stroke="#5070a0" stroke-width="1" opacity="0.03"/>
  <line x1="566" y1="238" x2="581" y2="297" stroke="#5070a0" stroke-width="1" opacity="0.04"/>
  <line x1="469" y1="366" x2="484" y2="412" stroke="#5070a0" stroke-width="1" opacity="0.05"/>
  <line x1="587" y1="443" x2="602" y2="497" stroke="#5070a0" stroke-width="1" opacity="0.03"/>
  <line x1="356" y1="275" x2="371" y2="325" stroke="#5070a0" stroke-width="1" opacity="0.04"/>
  <line x1="139" y1="277" x2="154" y2="346" stroke="#5070a0" stroke-width="1" opacity="0.08"/>
  <line x1="588" y1="126" x2="603" y2="204" stroke="#5070a0" stroke-width="1" opacity="0.07"/>
  <line x1="312" y1="388" x2="327" y2="445" stroke="#5070a0" stroke-width="1" opacity="0.08"/>
  <line x1="292" y1="327" x2="307" y2="405" stroke="#5070a0" stroke-width="1" opacity="0.07"/>
  <line x1="622" y1="473" x2="637" y2="505" stroke="#5070a0" stroke-width="1" opacity="0.07"/>
  <line x1="590" y1="-37" x2="605" y2="7" stroke="#5070a0" stroke-width="1" opacity="0.05"/>
  <line x1="766" y1="226" x2="781" y2="293" stroke="#5070a0" stroke-width="1" opacity="0.03"/>
  <line x1="70" y1="153" x2="85" y2="195" stroke="#5070a0" stroke-width="1" opacity="0.04"/>
  <line x1="573" y1="23" x2="588" y2="57" stroke="#5070a0" stroke-width="1" opacity="0.08"/>

  <!-- Vignette overlay -->
  <rect width="800" height="600" fill="url(#vignette)"/>
</svg>