<?xml version="1.0" encoding="UTF-8"?>
<svg xmlns="http://www.w3.org/2000/svg" viewBox="0 0 800 600" preserveAspectRatio="xMidYMid slice">
  <defs>
    <radialGradient id="bg" cx="50%" cy="40%" r="80%">
      <stop offset="0%" stop-color="#1a0000"/>
      <stop offset="100%" stop-color="#0a0000"/>
    </radialGradient>
    <radialGradient id="vignette" cx="50%" cy="50%" r="60%">
      <stop offset="20%" stop-color="black" stop-opacity="0"/>
      <stop offset="100%" stop-color="black" stop-opacity="0.95"/>
    </radialGradient>
    <filter id="blur-sm"><feGaussianBlur stdDeviation="3"/></filter>
    <filter id="blur-md"><feGaussianBlur stdDeviation="8"/></filter>
    <filter id="blur-lg"><feGaussianBlur stdDeviation="20"/></filter>
  </defs>

  <!-- Background -->
  <rect width="800" height="600" fill="url(#bg)"/>

  <!-- Scene elements -->
  <circle cx="400" cy="300" r="250" fill="#bb0000" opacity="0.06" filter="url(#blur-lg)"/>
  <line x1="400" y1="300" x2="900" y2="300" stroke="#ff0000" stroke-width="2" opacity="0.07" filter="url(#blur-sm)"/>
  <line x1="400" y1="300" x2="892" y2="387" stroke="#ff0000" stroke-width="2" opacity="0.04" filter="url(#blur-sm)"/>
  <line x1="400" y1="300" x2="870" y2="471" stroke="#ff0000" stroke-width="2" opacity="0.04" filter="url(#blur-sm)"/>
  <line x1="400" y1="300" x2="833" y2="550" stroke="#ff0000" stroke-width="2" opacity="0.07" filter="url(#blur-sm)"/>
  <line x1="400" y1="300" x2="783" y2="621" stroke="#ff0000" stroke-width="2" opacity="0.04" filter="url(#blur-sm)"/>
  <line x1="400" y1="300" x2="721" y2="683" stroke="#ff0000" stroke-width="2" opacity="0.04" filter="url(#blur-sm)"/>
  <line x1="400" y1="300" x2="650" y2="733" stroke="#ff0000" stroke-width="2" opacity="0.07" filter="url(#blur-sm)"/>
  <line x1="400" y1="300" x2="571" y2="770" stroke="#ff0000" stroke-width="2" opacity="0.04" filter="url(#blur-sm)"/>
  <line x1="400" y1="300" x2="487" y2="792" stroke="#ff0000" stroke-width="2" opacity="0.04" filter="url(#blur-sm)"/>
  <line x1="400" y1="300" x2="400" y2="800" stroke="#ff0000" stroke-width="2" opacity="0.07" filter="url(#blur-sm)"/>
  <line x1="400" y1="300" x2="313" y2="792" stroke="#ff0000" stroke-width="2" opacity="0.04" filter="url(#blur-sm)"/>
  <line x1="400" y1="300" x2="229" y2="770" stroke="#ff0000" stroke-width="2" opacity="0.04" filter="url(#blur-sm)"/>
  <line x1="400" y1="300" x2="150" y2="733" stroke="#ff0000" stroke-width="2" opacity="0.07" filter="url(#blur-sm)"/>
  <line x1="400" y1="300" x2="79" y2="683" stroke="#ff0000" stroke-width="2" opacity="0.04" filter="url(#blur-sm)"/>
  <line x1="400" y1="300" x2="17" y2="621" stroke="#ff0000" stroke-width="2" opacity="0.04" filter="url(#blur-sm)"/>
  <line x1="400" y1="300" x2="-33" y2="550" stroke="#ff0000" stroke-width="2" opacity="0.07" filter="url(#blur-sm)"/>
  <line x1="400" y1="300" x2="-70" y2="471" stroke="#ff0000" stroke-width="2" opacity="0.04" filter="url(#blur-sm)"/>
  <line x1="400" y1="300" x2="-92" y2="387" stroke="#ff0000" stroke-width="2" opacity="0.04" filter="url(#blur-sm)"/>
  <line x1="400" y1="300" x2="-100" y2="300" stroke="#ff0000" stroke-width="2" opacity="0.07" filter="url(#blur-sm)"/>
  <line x1="400" y1="300" x2="-92" y2="213" stroke="#ff0000" stroke-width="2" opacity="0.04" filter="url(#blur-sm)"/>
  <line x1="400" y1="300" x2="-70" y2="129" stroke="#ff0000" stroke-width="2" opacity="0.04" filter="url(#blur-sm)"/>
  <line x1="400" y1="300" x2="-33" y2="50" stroke="#ff0000" stroke-width="2" opacity="0.07" filter="url(#blur-sm)"/>
  <line x1="400" y1="300" x2="17" y2="-21" stroke="#ff0000" stroke-width="2" opacity="0.04" filter="url(#blur-sm)"/>
  <line x1="400" y1="300" x2="79" y2="-83" stroke="#ff0000" stroke-width="2" opacity="0.04" filter="url(#blur-sm)"/>
  <line x1="400" y1="300" x2="150" y2="-133" stroke="#ff0000" stroke-width="2" opacity="0.07" filter="url(#blur-sm)"/>
  <line x1="400" y1="300" x2="229" y2="-170" stroke="#ff0000" stroke-width="2" opacity="0.04" filter="url(#blur-sm)"/>
  <line x1="400" y1="300" x2="313" y2="-192" stroke="#ff0000" stroke-width="2" opacity="0.04" filter="url(#blur-sm)"/>
  <line x1="400" y1="300" x2="400" y2="-200" stroke="#ff0000" stroke-width="2" opacity="0.07" filter="url(#blur-sm)"/>
  <line x1="400" y1="300" x2="487" y2="-192" stroke="#ff0000" stroke-width="2" opacity="0.04" filter="url(#blur-sm)"/>
  <line x1="400" y1="300" x2="571" y2="-170" stroke="#ff0000" stroke-width="2" opacity="0.04" filter="url(#blur-sm)"/>
  <line x1="400" y1="300" x2="650" y2="-133" stroke="#ff0000" stroke-width="2" opacity="0.07" filter="url(#blur-sm)"/>
  <line x1="400" y1="300" x2="721" y2="-83" stroke="#ff0000" stroke-width="2" opacity="0.04" filter="url(#blur-sm)"/>
  <line x1="400" y1="300" x2="783" y2="-21" stroke="#ff0000" stroke-width="2" opacity="0.04" filter="url(#blur-sm)"/>
  <line x1="400" y1="300" x2="833" y2="50" stroke="#ff0000" stroke-width="2" opacity="0.07" filter="url(#blur-sm)"/>
  <line x1="400" y1="300" x2="870" y2="129" stroke="#ff0000" stroke-width="2" opacity="0.04" filter="url(#blur-sm)"/>
  <line x1="400" y1="300" x2="892" y2="213" stroke="#ff0000" stroke-width="2" opacity="0.04" filter="url(#blur-sm)"/>
  <circle cx="400" cy="300" r="80" fill="none" stroke="#ff0000" stroke-width="1.5" opacity="0.04" filter="url(#blur-sm)"/>
  <circle cx="400" cy="300" r="160" fill="none" stroke="#ff0000" stroke-width="1.5" opacity="0.04" filter="url(#blur-sm)"/>
  <circle cx="400" cy="300" r="250" fill="none" stroke="#ff0000" stroke-width="1.5" opacity="0.04" filter="url(#blur-sm)"/>
  <circle cx="400" cy="300" r="350" fill="none" stroke="#ff0000" stroke-width="1.5" opacity="0.04" filter="url(#blur-sm)"/>
  <rect x="0" y="0" width="800" height="80" fill="#800000" opacity="0.10" filter="url(#blur-lg)"/>
  <rect x="0" y="520" width="800" height="80" fill="#800000" opacity="0.10" filter="url(#blur-lg)"/>

  <!-- Vignette overlay -->
  <rect width="800" height="600" fill="url(#vignette)"/>
</svg>